<svg xmlns="http://www.w3.org/2000/svg" viewBox="0 0 560 340"><!-- Natural Earth 1:110m, public domain; equirectangular crop. --><g fill="#6e8b91" fill-opacity=".42" stroke="#c6d3cd" stroke-opacity=".2" stroke-width=".7"><path d="M111.6 388.1 L113.7 393.6 L117.8 398.0 L126.6 398.7 L132.4 403.7 L129.4 413.6 L128.9 425.8 L115.7 426.0 L105.7 419.4 L90.4 412.9 L85.3 408.1 L76.2 401.7 L70.3 395.7 L61.3 384.7 L50.8 378.1 L47.3 371.3 L42.9 365.1 L32.2 360.1 L25.9 353.4 L17.0 348.9 L4.5 340.2 L3.5 336.2 L11.2 336.5 L29.6 338.1 L40.1 345.8 L49.4 351.1 L55.9 354.4 L67.2 362.9 L79.3 363.1 L89.3 368.5 L96.2 375.1 L105.3 378.7 L100.5 385.2 L107.4 387.9 L111.6 388.1 Z"/><path d="M-546.9 12.7 L-552.3 17.3 L-563.9 18.6 L-575.7 26.8 L-564.9 34.3 L-566.0 39.6 L-553.0 49.0 L-553.0 49.0 L-560.2 52.1 L-562.2 54.2 L-567.5 53.6 L-575.7 48.8 L-579.0 48.5 L-586.5 46.7 L-590.1 43.5 L-601.3 41.8 L-608.5 43.1 L-610.6 41.6 L-626.8 37.8 L-644.3 36.5 L-654.4 35.2 L-655.9 36.1 L-671.0 29.4 L-684.6 26.4 L-694.9 21.8 L-686.3 20.5 L-676.4 13.9 L-683.0 10.8 L-665.5 7.6 L-665.8 5.8 L-676.5 7.1 L-676.1 3.6 L-670.0 1.4 L-658.4 0.8 L-656.6 -1.8 L-659.2 -6.2 L-654.4 -10.3 L-654.5 -12.7 L-672.1 -15.2 L-679.0 -15.1 L-686.4 -18.8 L-695.5 -17.6 L-710.7 -20.4 L-710.4 -21.9 L-714.6 -25.4 L-724.1 -25.7 L-725.1 -28.2 L-722.1 -29.8 L-729.8 -34.3 L-742.1 -33.5 L-745.7 -33.9 L-748.7 -32.1 L-753.2 -32.4 L-753.2 -32.4 L-756.1 -37.5 L-758.9 -40.1 L-756.6 -40.9 L-747.0 -40.6 L-742.4 -42.3 L-745.8 -44.4 L-753.8 -45.8 L-753.1 -47.2 L-758.0 -48.7 L-765.4 -53.9 L-762.9 -56.0 L-764.1 -59.7 L-775.7 -61.6 L-782.0 -60.6 L-783.6 -62.6 L-796.2 -64.6 L-800.0 -69.3 L-801.0 -73.1 L-806.8 -74.9 L-801.7 -77.4 L-805.2 -84.8 L-796.7 -89.4 L-798.5 -90.7 L-798.5 -90.7 L-785.0 -95.1 L-797.5 -98.9 L-797.5 -98.9 L-772.0 -109.0 L-760.9 -113.5 L-756.4 -117.6 L-774.0 -123.0 L-769.2 -128.1 L-779.9 -134.0 L-771.9 -140.8 L-785.7 -149.8 L-774.7 -155.8 L-793.0 -161.0 L-791.2 -166.6 L-781.6 -167.3 L-761.3 -170.5 L-761.3 -170.5 L-749.1 -173.2 L-729.5 -168.4 L-696.9 -166.5 L-651.8 -157.6 L-642.7 -153.8 L-641.9 -148.6 L-655.1 -144.4 L-674.6 -142.3 L-727.8 -148.3 L-736.5 -147.3 L-717.1 -141.5 L-716.3 -137.9 L-715.6 -129.8 L-700.2 -127.4 L-690.9 -125.3 L-689.4 -129.2 L-696.5 -132.6 L-689.0 -135.6 L-660.2 -130.6 L-650.1 -132.6 L-658.1 -138.3 L-630.4 -146.1 L-619.4 -145.6 L-608.3 -142.9 L-601.3 -148.3 L-611.3 -153.0 L-605.4 -157.7 L-614.2 -162.7 L-580.9 -160.1 L-574.0 -155.7 L-589.1 -154.7 L-589.0 -150.3 L-579.7 -147.6 L-561.3 -149.3 L-558.3 -154.4 L-533.5 -158.1 L-491.9 -164.9 L-482.9 -164.5 L-494.6 -159.7 L-479.9 -158.9 L-471.3 -161.6 L-449.0 -161.8 L-431.3 -165.1 L-417.7 -160.3 L-404.2 -165.6 L-416.7 -170.2 L-410.5 -172.8 L-375.3 -170.4 L-358.8 -167.9 L-315.6 -158.9 L-307.6 -163.0 L-319.7 -167.2 L-320.1 -168.9 L-334.5 -169.6 L-330.5 -173.4 L-336.9 -179.6 L-337.3 -182.1 L-315.3 -189.2 L-307.4 -196.4 L-298.6 -198.0 L-267.0 -195.9 L-264.6 -191.5 L-275.9 -185.1 L-268.4 -182.6 L-264.6 -177.0 L-267.3 -166.2 L-254.2 -161.4 L-259.3 -156.1 L-282.6 -144.9 L-269.0 -143.7 L-264.3 -146.5 L-251.2 -148.6 L-248.0 -152.5 L-237.7 -156.2 L-244.6 -160.7 L-239.1 -166.0 L-252.1 -166.6 L-255.0 -171.0 L-245.4 -178.9 L-260.9 -185.4 L-239.6 -190.7 L-242.4 -196.3 L-236.4 -196.5 L-230.2 -192.1 L-234.9 -184.5 L-222.1 -183.1 L-227.5 -188.8 L-207.6 -191.9 L-182.9 -192.3 L-160.9 -187.8 L-171.4 -194.4 L-172.6 -202.8 L-151.9 -204.4 L-123.3 -204.0 L-97.4 -205.1 L-107.1 -209.2 L-93.3 -214.4 L-79.6 -214.6 L-56.5 -218.5 L-25.0 -219.6 L-21.0 -221.8 L10.2 -222.5 L20.0 -220.7 L46.7 -224.9 L68.6 -224.8 L71.9 -228.2 L83.3 -231.6 L111.4 -234.8 L131.9 -232.3 L115.6 -230.3 L142.6 -229.1 L145.8 -225.2 L156.7 -227.1 L191.6 -227.0 L218.4 -223.2 L228.0 -220.2 L225.0 -216.1 L211.8 -213.7 L180.5 -209.4 L171.6 -207.0 L186.3 -205.9 L204.0 -203.9 L214.7 -205.4 L220.8 -200.3 L226.0 -202.4 L245.1 -203.6 L283.3 -202.3 L286.2 -198.6 L336.0 -197.4 L336.7 -203.5 L362.0 -202.1 L381.0 -202.1 L400.2 -198.0 L405.7 -192.9 L398.7 -189.6 L413.6 -183.4 L432.4 -180.2 L443.9 -188.5 L463.0 -184.9 L483.3 -187.0 L506.4 -184.6 L515.1 -186.8 L534.6 -185.7 L526.0 -193.1 L541.7 -196.5 L649.4 -191.3 L659.5 -186.7 L690.7 -180.6 L738.8 -182.1 L762.5 -180.8 L772.4 -177.5 L771.0 -171.8 L785.7 -169.5 L801.6 -171.1 L822.8 -171.3 L845.2 -169.8 L867.8 -170.7 L888.6 -163.6 L903.4 -166.2 L893.7 -171.2 L899.0 -174.7 L937.0 -172.5 L961.8 -173.0 L996.1 -169.2 L1012.8 -165.8 L1012.8 -134.3 L1012.7 -134.2 L997.4 -130.7 L981.9 -131.3 L992.7 -127.1 L999.8 -120.6 L1005.3 -118.5 L1006.6 -115.2 L1003.6 -113.1 L981.4 -114.8 L948.1 -108.9 L937.5 -108.0 L919.2 -102.4 L901.9 -97.5 L897.6 -93.9 L880.5 -99.4 L849.5 -93.2 L844.1 -96.1 L832.6 -92.8 L816.6 -93.8 L812.8 -88.6 L798.5 -81.0 L798.9 -77.8 L812.5 -76.0 L810.9 -64.5 L799.8 -64.2 L794.7 -57.6 L799.7 -54.2 L778.9 -50.2 L774.7 -41.1 L757.0 -39.2 L753.4 -31.2 L736.2 -23.8 L731.8 -29.3 L726.7 -40.8 L720.1 -58.4 L725.8 -69.3 L735.8 -74.0 L736.5 -77.7 L755.0 -79.5 L776.3 -89.5 L796.8 -97.6 L818.2 -103.9 L827.8 -115.1 L813.3 -114.4 L806.1 -107.9 L775.9 -99.2 L766.2 -108.9 L735.4 -106.2 L705.6 -93.0 L715.4 -88.1 L688.8 -86.1 L670.4 -85.2 L671.3 -91.0 L652.7 -92.2 L638.0 -88.3 L601.5 -89.6 L562.4 -87.3 L523.8 -71.9 L478.1 -53.2 L496.9 -52.2 L502.7 -47.3 L514.3 -45.5 L521.9 -49.5 L535.0 -48.9 L552.2 -40.2 L552.6 -33.5 L543.3 -25.6 L542.3 -16.2 L536.9 -3.5 L518.9 7.9 L515.0 13.4 L498.8 22.6 L482.7 31.7 L475.0 36.4 L459.2 41.0 L451.6 41.1 L444.2 37.3 L428.2 43.1 L426.3 45.7 L426.3 45.7 L426.3 45.7 L426.3 45.7 L424.6 44.3 L424.6 44.3 L424.6 40.3 L430.7 40.1 L432.4 30.7 L429.2 24.0 L439.5 21.2 L453.9 22.6 L461.9 14.9 L466.0 6.2 L470.6 3.3 L476.9 -3.8 L457.2 -1.5 L446.9 1.7 L428.8 1.7 L424.0 -5.8 L409.8 -11.4 L389.1 -13.9 L384.7 -21.7 L380.6 -26.5 L376.1 -29.9 L368.7 -37.9 L358.3 -40.8 L340.4 -43.2 L324.6 -42.9 L309.8 -41.5 L300.0 -37.6 L306.5 -35.7 L306.7 -31.3 L300.0 -28.8 L289.3 -20.4 L289.4 -16.9 L272.6 -11.9 L258.3 -14.9 L244.1 -14.3 L237.8 -16.9 L230.7 -17.8 L213.2 -12.2 L197.6 -10.9 L186.6 -8.9 L171.6 -10.2 L160.6 -10.1 L153.3 -14.2 L141.7 -18.0 L129.7 -19.0 L114.6 -18.0 L103.4 -16.5 L86.5 -19.9 L84.2 -25.8 L70.2 -27.8 L59.4 -28.7 L46.0 -32.0 L33.7 -23.8 L38.5 -19.2 L26.9 -13.6 L9.7 -15.6 L-2.2 -15.9 L-10.2 -19.6 L-22.6 -19.7 L-32.9 -22.2 L-51.1 -18.4 L-73.8 -11.6 L-86.4 -10.3 L-91.0 -9.6 L-97.4 -14.4 L-112.7 -13.4 L-117.8 -16.7 L-126.1 -18.3 L-131.8 -22.8 L-138.4 -24.3 L-155.5 -22.2 L-172.0 -26.8 L-178.3 -22.7 L-204.9 -42.7 L-220.1 -48.8 L-215.8 -51.3 L-245.6 -43.9 L-257.1 -43.4 L-256.1 -47.7 L-271.4 -50.4 L-283.8 -48.5 L-287.6 -56.7 L-309.0 -58.4 L-319.7 -55.1 L-349.5 -52.2 L-355.3 -50.2 L-399.9 -47.5 L-405.4 -44.8 L-396.8 -39.4 L-408.2 -37.3 L-406.0 -35.2 L-417.4 -31.3 L-398.1 -25.9 L-401.1 -22.1 L-417.8 -22.5 L-421.3 -20.1 L-436.5 -24.2 L-455.4 -24.1 L-468.1 -20.7 L-482.2 -23.9 L-508.4 -29.4 L-527.0 -29.2 L-551.6 -20.6 L-553.1 -14.8 L-565.4 -19.4 L-574.9 -10.7 L-571.4 -9.1 L-578.3 -3.1 L-568.2 2.2 L-559.3 2.0 L-551.7 7.3 L-552.9 11.4 L-546.9 12.7 Z"/><path d="M570.9 -45.1 L575.0 -37.5 L574.7 -29.7 L579.6 -21.7 L591.6 -7.7 L574.0 -10.3 L566.7 1.1 L578.3 9.2 L577.9 14.7 L568.9 10.0 L561.1 16.1 L558.9 9.4 L560.2 1.7 L558.9 -6.8 L561.6 -12.8 L562.1 -23.3 L555.2 -31.1 L556.2 -41.9 L567.2 -45.6 L562.5 -49.2 L567.8 -50.3 L570.9 -45.1 Z"/><path d="M90.4 283.2 L87.6 273.6 L95.2 267.1 L110.6 265.5 L121.8 266.7 L131.6 269.8 L137.0 264.3 L147.5 267.2 L150.3 272.5 L148.8 282.0 L128.8 288.1 L134.0 292.9 L121.5 293.4 L111.2 296.6 L101.2 295.5 L96.4 291.3 L90.4 283.2 Z"/><path d="M121.8 266.7 L110.6 265.5 L95.2 267.1 L87.6 273.6 L90.4 283.2 L79.7 279.5 L69.5 279.7 L71.2 273.5 L60.7 273.5 L59.8 282.2 L53.4 293.8 L49.5 300.8 L50.3 306.5 L58.1 306.7 L62.9 313.9 L65.0 320.8 L71.7 325.3 L78.9 326.2 L85.1 330.3 L81.2 333.6 L73.3 334.5 L72.4 330.5 L62.7 327.0 L60.6 328.4 L55.9 325.4 L53.9 321.5 L47.5 317.0 L41.7 313.3 L39.8 317.9 L37.5 313.5 L38.8 308.6 L42.3 301.0 L48.1 292.9 L54.7 285.5 L50.0 278.3 L50.2 274.6 L48.8 270.2 L40.9 263.9 L38.0 260.0 L42.1 258.5 L46.5 251.6 L41.6 246.4 L34.1 240.6 L28.3 233.7 L33.3 232.3 L38.8 223.7 L47.2 223.3 L54.1 219.9 L61.0 218.1 L66.1 220.5 L66.8 225.3 L74.8 225.6 L71.9 234.0 L72.2 241.1 L84.8 236.3 L88.3 237.7 L95.3 237.5 L97.7 234.8 L106.7 235.3 L115.8 241.7 L116.5 249.5 L126.2 256.4 L125.6 263.1 L121.8 266.7 Z"/><path d="M147.5 267.2 L137.0 264.3 L131.6 269.8 L121.8 266.7 L125.6 263.1 L126.2 256.4 L116.5 249.5 L115.8 241.7 L106.7 235.3 L97.7 234.8 L95.3 237.5 L88.3 237.7 L84.8 236.3 L72.2 241.1 L71.9 234.0 L74.8 225.6 L66.8 225.3 L66.1 220.5 L61.0 218.1 L63.5 215.2 L73.6 210.0 L74.7 211.9 L81.1 212.1 L79.3 203.1 L85.4 201.9 L92.4 208.2 L97.7 215.3 L112.4 215.4 L117.0 222.3 L109.4 224.4 L106.0 227.2 L120.3 231.9 L130.2 241.3 L137.7 248.2 L146.7 253.7 L149.7 259.3 L147.5 267.2 Z"/><path d="M61.0 218.1 L54.1 219.9 L47.2 223.3 L38.8 223.7 L33.3 232.3 L28.3 233.7 L34.1 240.6 L41.6 246.4 L46.5 251.6 L42.1 258.5 L38.0 260.0 L40.9 263.9 L48.8 270.2 L50.2 274.6 L50.0 278.3 L54.7 285.5 L48.1 292.9 L42.3 301.0 L41.2 295.1 L44.9 289.1 L40.8 284.4 L41.8 275.8 L37.0 271.7 L33.1 262.2 L30.9 252.2 L25.8 245.7 L17.9 249.6 L4.4 255.3 L-2.3 254.6 L-9.7 252.7 L-5.6 242.9 L-8.0 235.5 L-17.4 226.4 L-15.9 223.6 L-22.9 222.5 L-31.4 216.1 L-32.1 209.7 L-28.0 210.9 L-27.7 205.3 L-21.9 203.4 L-23.1 200.0 L-20.4 197.3 L-20.0 189.1 L-10.6 190.9 L-5.3 184.4 L-4.7 180.6 L1.8 173.9 L1.5 169.4 L16.9 164.0 L25.4 165.4 L24.4 160.5 L28.6 159.1 L27.7 156.1 L34.7 155.5 L38.7 160.1 L43.9 162.0 L44.2 168.1 L43.7 174.6 L32.5 181.2 L31.0 190.6 L43.6 189.3 L46.5 196.5 L54.0 198.1 L50.5 204.6 L59.4 207.6 L64.5 209.1 L73.3 206.8 L73.6 210.0 L63.5 215.2 L61.0 218.1 Z"/><path d="M111.2 296.6 L121.5 293.4 L134.0 292.9 L128.8 288.1 L148.8 282.0 L150.3 272.5 L147.5 267.2 L149.7 259.3 L146.7 253.7 L137.7 248.2 L130.2 241.3 L120.3 231.9 L106.0 227.2 L109.4 224.4 L117.0 222.3 L112.4 215.4 L97.7 215.3 L92.4 208.2 L85.4 201.9 L91.8 200.0 L101.3 200.0 L112.9 199.1 L123.1 194.9 L128.8 197.9 L139.7 199.3 L137.8 203.9 L143.5 207.1 L155.5 209.1 L139.6 215.9 L129.7 223.4 L127.0 228.8 L136.1 237.2 L147.3 247.5 L158.1 252.4 L165.3 258.7 L170.8 273.4 L169.2 287.3 L159.3 292.5 L145.6 297.6 L135.9 304.2 L121.0 311.5 L116.7 306.5 L120.1 301.1 L111.2 296.6 Z"/><path d="M426.3 45.7 L426.3 45.7 L426.3 45.7 L426.3 45.7 Z"/><path d="M424.6 44.3 L424.6 44.3 L426.3 45.7 L421.8 45.2 L416.6 47.9 L413.1 50.6 L413.5 56.3 L407.3 58.0 L405.2 59.4 L400.7 61.8 L392.8 63.1 L387.6 65.2 L387.3 68.6 L385.9 69.5 L390.6 70.8 L397.4 74.2 L395.6 76.1 L390.6 76.7 L382.2 77.0 L377.5 80.6 L372.2 80.3 L371.4 81.0 L365.7 79.5 L364.2 81.0 L360.7 81.7 L360.3 80.2 L357.2 79.5 L354.0 78.2 L357.3 74.7 L360.1 73.8 L359.0 72.4 L362.1 68.1 L361.3 66.8 L354.3 65.9 L348.7 63.8 L358.4 58.8 L371.5 54.5 L379.7 48.9 L385.4 51.4 L395.7 51.7 L393.8 47.5 L412.2 44.1 L417.0 39.7 L424.6 44.3 Z"/><path d="M371.4 81.0 L372.2 80.3 L377.5 80.6 L382.2 77.0 L390.6 76.7 L395.6 76.1 L397.4 74.2 L407.6 83.6 L410.6 88.7 L410.7 97.8 L406.2 102.1 L395.4 103.7 L385.9 106.9 L375.1 107.6 L373.8 103.3 L376.0 97.4 L370.8 89.1 L379.6 87.8 L371.4 81.0 Z"/><path d="M-86.4 -10.3 L-73.8 -11.6 L-51.1 -18.4 L-32.9 -22.2 L-22.6 -19.7 L-10.2 -19.6 L-2.2 -15.9 L9.7 -15.6 L26.9 -13.6 L38.5 -19.2 L33.7 -23.8 L46.0 -32.0 L59.4 -28.7 L70.2 -27.8 L84.2 -25.8 L86.5 -19.9 L103.4 -16.5 L114.6 -18.0 L129.7 -19.0 L141.7 -18.0 L153.3 -14.2 L160.6 -10.1 L171.6 -10.2 L186.6 -8.9 L197.6 -10.9 L213.2 -12.2 L230.7 -17.8 L237.8 -16.9 L244.1 -14.3 L258.3 -14.9 L252.5 -9.0 L244.1 -1.1 L247.1 2.2 L253.9 1.2 L265.6 2.4 L274.8 -0.5 L284.4 2.0 L295.2 7.5 L293.9 10.3 L284.5 9.4 L267.2 10.5 L258.8 12.7 L250.0 18.0 L231.9 21.0 L220.0 25.2 L207.7 23.6 L201.0 22.9 L194.8 28.0 L198.6 31.0 L200.5 33.7 L192.2 36.3 L183.6 40.6 L169.7 43.3 L151.9 43.6 L132.6 46.4 L118.7 50.6 L113.5 48.2 L99.0 48.2 L81.4 43.4 L69.7 42.2 L53.8 43.3 L29.2 41.5 L16.1 41.7 L9.1 37.0 L3.7 29.7 L-3.7 28.8 L-18.1 23.9 L-34.1 22.8 L-48.3 21.5 L-52.6 18.0 L-48.0 8.8 L-56.2 2.4 L-73.2 -0.5 L-83.2 -4.7 L-86.4 -10.3 Z"/><path d="M27.7 156.1 L28.6 159.1 L24.4 160.5 L25.4 165.4 L16.9 164.0 L1.5 169.4 L1.8 173.9 L-4.7 180.6 L-5.3 184.4 L-10.6 190.9 L-20.0 189.1 L-20.4 197.3 L-23.1 200.0 L-21.9 203.4 L-27.7 205.3 L-34.0 192.7 L-37.3 192.7 L-39.2 197.8 L-45.8 193.7 L-42.1 189.2 L-36.8 188.7 L-31.3 182.0 L-38.1 180.7 L-49.2 180.8 L-60.5 179.7 L-61.6 174.2 L-67.3 173.8 L-76.7 170.4 L-80.9 175.8 L-72.3 180.0 L-79.8 182.9 L-82.4 185.8 L-75.1 187.9 L-77.1 192.7 L-73.0 198.6 L-71.1 205.1 L-72.8 208.0 L-80.9 207.9 L-95.6 209.6 L-94.9 215.5 L-101.3 220.2 L-118.4 225.5 L-131.8 234.8 L-140.7 239.8 L-152.6 245.0 L-152.6 248.6 L-158.6 250.6 L-169.3 253.4 L-174.9 253.8 L-178.4 259.9 L-175.9 270.1 L-175.3 276.7 L-180.4 284.2 L-180.4 297.6 L-186.6 298.0 L-192.0 304.1 L-188.4 306.7 L-199.2 308.9 L-203.3 314.3 L-208.0 316.6 L-219.3 309.2 L-224.8 298.1 L-229.4 290.1 L-233.6 286.4 L-239.9 278.8 L-242.9 268.9 L-244.9 264.0 L-255.8 253.1 L-260.7 237.8 L-264.3 227.7 L-264.2 218.1 L-266.5 210.7 L-283.9 215.4 L-292.3 214.5 L-307.8 204.9 L-302.1 202.0 L-305.6 198.9 L-319.6 192.2 L-311.7 186.9 L-285.4 186.9 L-287.8 180.2 L-294.5 176.1 L-295.9 170.1 L-303.7 166.5 L-290.5 158.2 L-276.7 158.8 L-264.2 150.5 L-256.8 142.5 L-245.2 134.6 L-245.4 128.9 L-235.2 124.4 L-244.8 120.5 L-249.0 115.1 L-253.2 108.2 L-247.4 104.8 L-229.3 106.7 L-216.0 105.5 L-204.5 98.9 L-191.7 108.2 L-192.9 114.6 L-188.1 118.6 L-188.5 122.7 L-197.1 121.6 L-193.7 130.3 L-182.0 135.3 L-165.5 140.9 L-173.0 144.5 L-177.7 151.9 L-166.1 154.8 L-154.9 158.7 L-139.4 163.2 L-123.0 164.2 L-116.1 168.2 L-106.9 169.0 L-92.6 170.8 L-82.7 170.7 L-81.3 167.5 L-82.9 162.5 L-82.0 159.1 L-74.7 157.5 L-73.7 163.7 L-73.4 165.3 L-62.6 168.3 L-55.1 167.0 L-45.1 167.6 L-35.3 167.3 L-34.5 162.5 L-39.4 159.9 L-29.8 159.0 L-18.9 153.1 L-5.2 148.0 L4.8 150.0 L13.3 146.7 L18.9 151.6 L14.9 154.9 L27.7 156.1 Z"/><path d="M172.5 235.6 L162.7 233.2 L162.4 226.4 L168.2 222.8 L181.2 220.6 L188.1 220.8 L190.8 223.8 L185.5 227.3 L182.8 231.8 L172.5 235.6 Z"/><path d="M-175.6 44.7 L-176.6 40.2 L-168.4 38.1 L-179.1 24.4 L-155.5 21.2 L-149.4 19.5 L-140.8 5.3 L-117.2 7.9 L-110.6 4.3 L-110.0 -3.6 L-100.1 -4.3 L-91.0 -9.6 L-86.4 -10.3 L-83.2 -4.7 L-73.2 -0.5 L-56.2 2.4 L-48.0 8.8 L-52.6 18.0 L-48.3 21.5 L-34.1 22.8 L-18.1 23.9 L-3.7 28.8 L3.7 29.7 L9.1 37.0 L16.1 41.7 L29.2 41.5 L53.8 43.3 L69.7 42.2 L81.4 43.4 L99.0 48.2 L113.5 48.2 L118.7 50.6 L132.6 46.4 L151.9 43.6 L169.7 43.3 L183.6 40.6 L192.2 36.3 L200.5 33.7 L198.6 31.0 L194.8 28.0 L201.0 22.9 L207.7 23.6 L220.0 25.2 L231.9 21.0 L250.0 18.0 L258.8 12.7 L267.2 10.5 L284.5 9.4 L293.9 10.3 L295.2 7.5 L284.4 2.0 L274.8 -0.5 L265.6 2.4 L253.9 1.2 L247.1 2.2 L244.1 -1.1 L252.5 -9.0 L258.3 -14.9 L272.6 -11.9 L289.4 -16.9 L289.3 -20.4 L300.0 -28.8 L306.7 -31.3 L306.5 -35.7 L300.0 -37.6 L309.8 -41.5 L324.6 -42.9 L340.4 -43.2 L358.3 -40.8 L368.7 -37.9 L376.1 -29.9 L380.6 -26.5 L384.7 -21.7 L389.1 -13.9 L409.8 -11.4 L424.0 -5.8 L428.8 1.7 L446.9 1.7 L457.2 -1.5 L476.9 -3.8 L470.6 3.3 L466.0 6.2 L461.9 14.9 L453.9 22.6 L439.5 21.2 L429.2 24.0 L432.4 30.7 L430.7 40.1 L424.6 40.3 L424.6 44.3 L417.0 39.7 L412.2 44.1 L393.8 47.5 L395.7 51.7 L385.4 51.4 L379.7 48.9 L371.5 54.5 L358.4 58.8 L348.7 63.8 L332.0 66.1 L323.3 69.8 L310.4 72.0 L316.8 68.3 L314.3 65.2 L323.7 59.9 L317.4 55.8 L307.0 58.6 L293.6 64.1 L286.2 69.2 L274.6 69.5 L268.5 73.2 L274.8 78.6 L284.5 79.9 L284.9 83.4 L294.3 85.7 L307.7 80.1 L318.3 83.2 L326.0 83.4 L327.9 87.5 L311.0 89.7 L305.5 94.0 L293.9 98.0 L287.8 103.5 L300.6 107.8 L305.3 115.6 L312.5 122.9 L320.6 128.9 L320.4 134.8 L312.9 137.0 L315.8 141.2 L322.8 143.6 L321.0 150.1 L317.9 156.4 L311.3 157.1 L302.6 165.6 L292.9 176.0 L281.9 185.4 L265.5 192.7 L248.9 199.4 L235.5 200.3 L228.2 203.8 L224.1 201.2 L217.3 205.2 L200.7 209.1 L188.1 210.3 L184.0 218.7 L177.4 219.2 L174.3 213.4 L177.1 210.4 L161.1 207.8 L155.5 209.1 L143.5 207.1 L137.8 203.9 L139.7 199.3 L128.8 197.9 L123.1 194.9 L112.9 199.1 L101.3 200.0 L91.8 200.0 L85.4 201.9 L79.3 203.1 L81.1 212.1 L74.7 211.9 L73.6 210.0 L73.3 206.8 L64.5 209.1 L59.4 207.6 L50.5 204.6 L54.0 198.1 L46.5 196.5 L43.6 189.3 L31.0 190.6 L32.5 181.2 L43.7 174.6 L44.2 168.1 L43.9 162.0 L38.7 160.1 L34.7 155.5 L27.7 156.1 L14.9 154.9 L18.9 151.6 L13.3 146.7 L4.8 150.0 L-5.2 148.0 L-18.9 153.1 L-29.8 159.0 L-39.4 159.9 L-44.6 157.8 L-50.9 157.6 L-59.4 155.8 L-65.8 157.8 L-73.7 163.7 L-74.7 157.5 L-82.0 159.1 L-95.9 158.3 L-109.3 156.5 L-119.0 153.1 L-128.3 151.5 L-132.3 147.7 L-139.0 146.6 L-151.0 141.4 L-160.5 139.0 L-165.5 140.9 L-182.0 135.3 L-193.7 130.3 L-197.1 121.6 L-188.5 122.7 L-188.1 118.6 L-192.9 114.6 L-191.7 108.2 L-204.5 98.9 L-224.1 95.7 L-227.6 89.6 L-236.4 85.9 L-238.5 83.7 L-240.3 79.1 L-239.9 76.1 L-247.1 74.3 L-251.1 75.1 L-254.1 67.8 L-250.7 65.9 L-252.3 64.1 L-241.0 60.4 L-232.7 58.8 L-220.1 59.9 L-215.6 54.8 L-200.3 53.9 L-196.1 50.7 L-177.3 46.5 L-175.6 44.7 Z"/><path d="M319.1 186.6 L311.9 199.3 L306.8 205.8 L300.5 199.1 L299.1 193.3 L306.1 185.5 L315.7 179.5 L321.1 181.9 L319.1 186.6 Z"/><path d="M307.8 279.1 L301.7 273.1 L311.9 273.3 L316.1 276.2 L312.9 283.0 L307.8 279.1 Z"/><path d="M328.7 300.6 L331.7 298.4 L333.0 293.5 L339.6 293.0 L337.6 298.4 L346.5 290.7 L345.3 298.3 L341.0 300.9 L337.3 305.9 L333.6 308.2 L326.2 302.7 L328.7 300.6 Z"/><path d="M373.9 313.0 L375.1 318.3 L375.8 322.7 L371.7 329.9 L367.4 321.9 L361.8 325.9 L365.6 331.7 L362.2 335.4 L348.2 330.8 L344.8 325.1 L348.4 321.3 L340.9 317.6 L337.1 320.9 L331.5 320.6 L322.7 325.0 L320.7 322.7 L325.4 316.0 L332.9 313.8 L339.4 310.8 L343.6 314.4 L352.7 312.2 L354.6 308.7 L363.1 308.5 L362.4 302.4 L372.0 306.1 L373.0 310.1 L373.9 313.0 Z"/><path d="M280.1 305.9 L264.2 313.4 L270.0 307.8 L278.7 303.0 L285.8 297.5 L292.1 289.6 L294.2 296.1 L286.3 300.4 L280.1 305.9 Z"/><path d="M325.7 235.4 L323.8 238.7 L327.8 244.4 L324.7 250.9 L317.7 253.6 L315.8 259.9 L318.5 266.2 L324.8 267.1 L330.1 266.2 L344.9 270.6 L343.8 274.9 L347.7 276.8 L346.5 280.4 L337.2 276.5 L332.8 272.4 L329.7 275.3 L322.1 270.5 L311.3 271.7 L305.4 270.0 L306.0 266.7 L309.7 264.7 L306.1 262.9 L304.6 265.7 L298.7 261.2 L296.9 257.7 L296.5 250.1 L301.3 252.7 L302.5 240.4 L306.4 233.2 L313.6 233.2 L321.0 235.5 L324.6 233.4 L325.7 235.4 Z"/><path d="M322.2 289.3 L320.3 285.5 L327.5 288.0 L335.0 287.9 L334.8 291.2 L329.3 294.6 L321.7 297.0 L321.3 293.3 L322.2 289.3 Z"/><path d="M363.4 283.4 L366.8 292.2 L357.6 290.1 L357.8 292.7 L360.8 297.6 L355.1 299.4 L354.6 293.8 L351.0 293.4 L349.1 288.6 L356.1 289.3 L356.0 286.3 L348.7 280.2 L360.2 280.4 L363.4 283.4 Z"/><path d="M60.6 328.4 L62.7 327.0 L72.4 330.5 L73.3 334.5 L81.2 333.6 L85.1 330.3 L87.8 331.1 L94.9 335.9 L99.9 341.1 L100.5 346.5 L99.3 350.1 L100.4 352.8 L101.3 357.5 L105.5 359.6 L110.2 366.6 L110.0 369.3 L101.5 369.8 L90.2 364.0 L76.1 357.7 L74.7 353.7 L67.9 348.4 L66.2 341.8 L61.9 337.5 L63.2 331.8 L60.6 328.4 Z"/><path d="M272.6 346.8 L262.3 345.5 L248.6 345.5 L244.5 354.5 L239.9 357.2 L233.8 368.2 L224.1 369.9 L212.8 367.7 L207.1 368.4 L200.1 372.4 L192.5 371.8 L184.8 373.4 L176.7 369.0 L174.7 363.7 L183.4 366.4 L192.7 364.9 L195.0 358.2 L200.1 356.7 L214.4 355.0 L223.0 348.7 L228.8 343.7 L234.2 347.8 L236.7 345.2 L242.4 345.4 L243.1 340.4 L243.7 336.5 L252.8 331.0 L258.9 324.8 L263.7 324.8 L269.8 328.8 L270.3 332.2 L278.2 334.4 L288.1 336.8 L287.3 339.9 L279.3 340.3 L281.4 344.1 L272.6 346.8 Z"/><path d="M243.7 336.5 L243.1 340.4 L242.4 345.4 L236.7 345.2 L234.2 347.8 L228.8 343.7 L233.5 340.8 L243.7 336.5 Z"/><path d="M558.6 69.7 L547.6 77.7 L547.8 85.9 L543.3 92.2 L545.4 96.1 L539.2 101.7 L524.0 105.4 L503.0 105.9 L486.0 114.9 L478.0 111.9 L477.5 106.0 L456.8 107.7 L442.7 111.4 L428.8 111.6 L440.9 117.4 L432.9 130.9 L425.2 134.2 L419.4 131.1 L422.4 124.0 L414.8 121.7 L410.0 116.3 L421.2 113.8 L427.5 108.9 L439.5 104.8 L448.2 99.4 L471.9 97.0 L484.7 98.6 L497.1 84.6 L505.1 88.3 L522.6 80.4 L529.3 77.4 L536.8 67.7 L534.8 58.8 L539.8 53.8 L552.5 52.4 L559.0 63.3 L558.6 69.7 Z"/><path d="M591.1 31.9 L599.6 28.6 L602.2 37.5 L584.5 39.6 L574.1 47.5 L555.4 42.1 L548.9 50.7 L535.6 50.8 L534.0 43.0 L539.9 36.9 L552.6 36.5 L556.1 25.5 L559.6 19.4 L573.6 27.6 L582.8 30.3 L591.1 31.9 Z"/><path d="M445.3 114.9 L451.9 110.2 L458.6 111.1 L463.5 107.8 L472.3 109.5 L473.8 112.2 L467.1 117.0 L462.2 114.5 L456.1 116.3 L452.9 120.9 L445.2 118.7 L445.3 114.9 Z"/></g></svg>